<svg width="99" height="68" viewBox="0 0 99 68" fill="none" xmlns="http://www.w3.org/2000/svg">
<path d="M2 66C24 58.8333 72.6 44.2 91 43C114 41.5 62 50.5 49 60" stroke="#132BFF" stroke-width="4" stroke-linecap="round" stroke-linejoin="round"/>
<path d="M38.693 34.6659C34.0117 39.9288 28.6885 44.6168 22.8022 48.476C20.0661 50.2544 16.9194 52.5033 13.5653 52.824C11.5531 53.0332 10.9507 52.3314 10.7423 50.3612C10.5331 48.3491 10.6178 46.3309 10.8293 44.3522C11.6465 37.0679 14.4389 29.8273 17.8775 23.3715C21.1533 17.1712 25.5534 10.4858 31.3496 6.33428C32.2194 5.72836 33.1321 5.16356 34.1313 4.72302C34.4646 4.59017 35.0045 4.28506 35.3824 4.27733C36.0945 4.17873 36.0114 4.22244 36.194 4.93285C36.6491 6.6459 36.3125 8.66921 36.0958 10.396C35.4284 14.7366 34.043 18.8818 32.0645 22.7871C31.3387 24.2723 34.9287 27.2654 35.8576 25.44C38.0357 21.0265 39.4528 16.3766 40.025 11.4918C40.4567 7.95425 40.2534 4.17762 37.2221 1.80316C33.5936 -1.02118 29.4906 1.70936 26.5582 4.16388C23.0474 7.09234 20.2265 10.8889 17.6987 14.6374C12.4828 22.5158 8.42823 31.7147 7.10907 41.1516C6.56086 45.1537 6.07784 50.2887 8.83575 53.6769C11.2063 56.611 14.8296 57.125 18.2942 56.0459C22.6355 54.6967 26.7719 51.5454 30.371 48.8252C34.6316 45.5873 38.5477 41.9364 42.079 37.9573C43.3113 36.5878 39.8841 33.3393 38.693 34.6659ZM50.8316 32.3591C48.2681 28.2106 44.7564 29.0387 41.5326 31.6252C40.9961 30.0398 38.3565 28.3295 37.8424 29.8943C36.3756 34.1673 34.739 38.3596 33.2301 42.6334C32.6741 44.1991 36.1792 47.152 36.9804 45.2452C38.144 42.5748 39.7746 40.147 41.7464 37.9641C42.6084 36.9803 43.5553 36.0367 44.5888 35.2174C45.1261 34.7863 47.1938 33.1897 48.1176 33.1708C48.6764 33.7895 49.4014 34.3207 50.1975 34.2204C51.1616 34.1167 51.3098 33.1474 50.8316 32.3591ZM71.9214 32.3475C67.7473 35.7096 57.4804 41.0448 53.2084 41.6784C53.3652 41.129 53.522 40.5797 53.7216 40.0715C53.7636 40.0707 53.7636 40.0707 53.7628 40.0287C56.2993 38.7585 65.7977 34.8673 61.6377 30.7096C58.7633 27.7858 55.0382 30.5086 52.9448 32.9039C50.6457 35.5135 47.3904 40.6632 50.0652 44.0952C51.7904 46.2863 54.2233 46.1105 56.5568 45.1806C62.977 42.7807 68.8521 38.3755 74.4453 34.5643C75.8129 33.6541 73.409 31.1408 71.9214 32.3475ZM89.9712 25.2986C89.2721 28.0855 88.2773 30.7944 86.9432 33.3423C86.6193 33.937 84.5988 37.8432 83.0323 39.3035C83.136 38.2092 83.4041 36.9434 83.4795 36.5218C83.6508 34.6279 83.99 32.7306 84.3713 30.8324C84.6386 29.5246 82.0975 26.468 80.7821 27.8812C78.3562 30.4514 75.9723 33.0207 73.5455 35.5489C72.6415 36.5336 71.6586 37.772 70.5875 38.8021C70.71 38.6316 70.7897 38.4199 70.8719 38.3342C71.6783 36.6793 72.698 35.1882 73.8445 33.7364C75.0339 32.3258 71.5655 29.1201 70.4593 30.487C68.4516 32.9646 66.5381 35.9444 65.7619 39.0689C65.1776 41.3073 66.207 44.3949 68.903 44.7598C71.683 45.123 74.1775 41.7953 75.7799 40.0401C76.9727 38.7974 78.1655 37.5548 79.3155 36.271C79.2924 37.1956 79.2685 38.0783 79.3285 38.9593C79.4623 41.393 81.6169 44.0375 84.2555 43.6474C87.0192 43.2128 88.7894 39.3958 90.0062 37.2704C91.6677 34.2958 92.9066 31.2038 93.7634 27.9096C94.1918 26.2624 90.4793 23.4398 89.9712 25.2986Z" fill="white"/>
</svg>
