<svg width="1440" height="223" viewBox="0 0 1440 223" fill="none" xmlns="http://www.w3.org/2000/svg">
<rect x="-9.25415" y="8.37402" width="1536" height="147.973" transform="rotate(2.48 -9.25415 8.37402)" fill="#FFC857"/>
<path d="M656.355 99.5797L655.716 114.318C655.662 115.565 655.202 116.57 654.338 117.301C653.473 118.032 652.37 118.369 650.995 118.309C649.748 118.255 648.742 117.827 648.008 117.027C647.274 116.226 646.934 115.187 646.988 113.94L647.627 99.2017L643.439 99.0203L642.795 113.886C642.694 116.22 643.41 118.173 644.943 119.745C646.509 121.318 648.49 122.173 650.951 122.279C653.445 122.387 655.523 121.74 657.218 120.308C658.914 118.877 659.796 116.993 659.897 114.659L660.541 99.7931L656.355 99.5797ZM668.341 122.616L669.315 100.141L665.127 99.9596L664.153 122.435L668.341 122.616ZM680.039 97.1783L671.146 127.222L675.143 127.395L684.035 97.3514L680.039 97.1783ZM699.613 101.453L698.974 116.191C698.92 117.438 698.46 118.443 697.596 119.175C696.732 119.906 695.628 120.242 694.253 120.183C693.006 120.129 692 119.701 691.266 118.9C690.532 118.1 690.193 117.06 690.247 115.813L690.885 101.075L686.697 100.894L686.053 115.76C685.952 118.094 686.668 120.047 688.201 121.618C689.767 123.192 691.748 124.046 694.209 124.153C696.703 124.261 698.781 123.614 700.477 122.182C702.172 120.75 703.054 118.867 703.156 116.533L703.799 101.667L699.613 101.453ZM709.457 124.397L715.632 116.432L721.158 124.904L726.178 125.121L718.335 113.186L726.544 102.62L721.876 102.418L716.007 109.979L710.974 101.945L706.083 101.734L713.342 113.098L704.726 124.192L709.457 124.397ZM740.887 126.174C742.102 126.227 743.232 126.02 744.278 125.553C745.291 125.084 746.186 124.386 746.899 123.456L746.787 126.046L750.559 126.209L751.585 102.519L747.589 102.346L747.169 112.033C746.534 111.173 745.762 110.499 744.792 109.976C743.852 109.487 742.807 109.218 741.688 109.169C739.386 109.069 737.465 109.787 735.892 111.352C734.319 112.918 733.495 114.932 733.388 117.394C733.282 119.855 733.93 121.901 735.331 123.564C736.733 125.226 738.584 126.107 740.854 126.205L740.887 126.174ZM737.514 117.54C737.573 116.166 738.072 115.002 739.008 114.114C739.943 113.225 741.113 112.828 742.488 112.887C743.863 112.947 744.961 113.475 745.816 114.441C746.671 115.407 747.069 116.577 747.009 117.952C746.949 119.326 746.452 120.458 745.517 121.346C744.581 122.235 743.442 122.666 742.067 122.606C740.692 122.547 739.561 122.049 738.706 121.083C737.851 120.117 737.453 118.947 737.512 117.572L737.514 117.54ZM762.137 123.764C760.891 123.71 759.852 123.28 759.022 122.476C758.192 121.671 757.724 120.658 757.586 119.403L770.757 119.973L770.813 118.694C770.917 116.297 770.203 114.28 768.705 112.645C767.206 111.011 765.225 110.157 762.763 110.05C760.334 109.945 758.252 110.687 756.517 112.278C754.783 113.868 753.864 115.846 753.762 118.212C753.655 120.674 754.367 122.722 755.927 124.424C757.487 126.125 759.497 127.044 761.959 127.151C763.973 127.238 765.721 126.802 767.203 125.873C768.684 124.944 769.735 123.612 770.355 121.877L766.454 121.709C766.006 122.458 765.405 123.008 764.717 123.363C763.997 123.716 763.158 123.872 762.199 123.83L762.137 123.764ZM762.681 113.441C763.799 113.49 764.746 113.819 765.519 114.461C766.292 115.103 766.799 115.958 767.042 117.026L757.994 116.634C758.391 115.594 759.003 114.788 759.828 114.215C760.654 113.642 761.626 113.396 762.744 113.444L762.681 113.441ZM779.882 110.791C777.931 110.707 776.345 111.087 775.092 111.929C773.838 112.772 773.178 113.96 773.113 115.463C773.059 116.71 773.4 117.717 774.135 118.486C774.903 119.256 776.187 119.92 778.022 120.448L779.921 120.979C780.744 121.206 781.308 121.487 781.647 121.79C781.955 122.092 782.098 122.482 782.077 122.962C782.051 123.569 781.774 124.038 781.281 124.337C780.787 124.635 780.109 124.766 779.246 124.729C778.319 124.689 777.593 124.433 777.101 123.963C776.641 123.495 776.381 122.843 776.385 122.011L772.197 121.829C772.182 123.654 772.792 125.09 774.029 126.104C775.267 127.119 777.004 127.675 779.242 127.772C781.288 127.86 782.94 127.451 784.196 126.545C785.452 125.638 786.117 124.354 786.189 122.691C786.245 121.381 785.906 120.341 785.14 119.539C784.373 118.769 783.056 118.104 781.156 117.605L779.573 117.184C778.559 116.916 777.899 116.631 777.621 116.395C777.312 116.125 777.168 115.767 777.189 115.287C777.209 114.807 777.45 114.433 777.91 114.165C778.338 113.895 778.919 113.792 779.654 113.824C780.453 113.859 781.084 114.078 781.485 114.448C781.885 114.818 782.087 115.339 782.087 116.076L786.179 116.253C786.125 114.553 785.541 113.246 784.428 112.301C783.316 111.356 781.801 110.842 779.851 110.758L779.882 110.791ZM789.278 106.682C789.246 107.417 789.444 108.034 789.903 108.535C790.361 109.035 790.99 109.319 791.725 109.35C792.524 109.385 793.141 109.188 793.642 108.729C794.142 108.27 794.424 107.674 794.456 106.938C794.488 106.203 794.258 105.585 793.8 105.084C793.341 104.584 792.743 104.334 791.944 104.299C791.145 104.265 790.527 104.462 790.027 104.921C789.527 105.38 789.245 105.976 789.213 106.711L789.278 106.682ZM792.901 128.043L793.603 111.834L789.607 111.661L788.905 127.87L792.901 128.043ZM796.05 128.884C796.064 130.774 796.827 132.377 798.277 133.657C799.759 134.938 801.651 135.629 803.985 135.73C806.511 135.839 808.555 135.223 810.087 133.88C811.618 132.537 812.434 130.715 812.535 128.381L813.216 112.651L809.444 112.488L809.351 114.63C808.748 113.771 808.008 113.099 807.132 112.612C806.257 112.126 805.275 111.859 804.188 111.812C801.982 111.716 800.127 112.405 798.655 113.847C797.183 115.288 796.397 117.176 796.297 119.478C796.197 121.78 796.819 123.696 798.162 125.228C799.505 126.759 801.263 127.572 803.437 127.666C804.524 127.713 805.492 127.563 806.341 127.184C807.222 126.805 808.014 126.263 808.686 125.556L808.556 128.561C808.503 129.776 808.078 130.718 807.279 131.42C806.511 132.124 805.441 132.43 804.098 132.371C802.852 132.317 801.841 131.985 801.099 131.377C800.324 130.767 799.974 129.983 799.984 129.022L796.05 128.884ZM800.456 119.594C800.51 118.347 800.97 117.342 801.807 116.513C802.642 115.717 803.683 115.345 804.93 115.399C806.176 115.453 807.182 115.913 807.945 116.779C808.707 117.677 809.078 118.718 809.024 119.965C808.97 121.212 808.51 122.217 807.673 123.045C806.838 123.842 805.797 124.213 804.55 124.159C803.303 124.105 802.298 123.645 801.535 122.779C800.773 121.882 800.403 120.809 800.457 119.562L800.456 119.594ZM820.566 129.209L820.966 119.97C821.013 118.883 821.372 118.001 822.042 117.326C822.712 116.65 823.558 116.334 824.613 116.38C825.668 116.426 826.454 116.78 827.003 117.412C827.552 118.045 827.802 118.92 827.754 120.039L827.347 129.439L831.343 129.612L831.796 119.157C831.876 117.303 831.398 115.777 830.359 114.611C829.321 113.445 827.907 112.807 826.085 112.728C825.03 112.683 824.093 112.866 823.21 113.276C822.328 113.687 821.565 114.294 820.954 115.069L821.046 112.959L817.241 112.794L816.539 129.003L820.566 129.209ZM842.737 127.255C841.49 127.201 840.452 126.771 839.622 125.967C838.792 125.162 838.323 124.149 838.185 122.893L851.357 123.464L851.412 122.185C851.516 119.787 850.803 117.771 849.304 116.136C847.805 114.502 845.825 113.647 843.363 113.541C840.933 113.436 838.851 114.178 837.117 115.769C835.382 117.359 834.464 119.337 834.361 121.703C834.255 124.165 834.967 126.213 836.526 127.914C838.086 129.615 840.096 130.535 842.558 130.642C844.572 130.729 846.321 130.292 847.802 129.364C849.284 128.435 850.334 127.103 850.954 125.368L847.054 125.199C846.605 125.949 846.005 126.499 845.317 126.854C844.597 127.207 843.757 127.363 842.798 127.321L842.737 127.255ZM843.28 116.932C844.399 116.981 845.346 117.31 846.119 117.952C846.891 118.594 847.399 119.449 847.641 120.516L838.593 120.125C838.991 119.085 839.602 118.278 840.428 117.706C841.253 117.133 842.225 116.887 843.344 116.935L843.28 116.932ZM862.999 118.267C863.223 118.277 863.351 118.282 863.573 118.324L864.08 118.442L864.245 114.637C864.183 114.603 864.055 114.597 863.863 114.589L863.383 114.568C862.328 114.522 861.389 114.77 860.502 115.276C859.647 115.783 858.909 116.552 858.322 117.552L858.446 114.674L854.642 114.51L853.94 130.719L857.936 130.892L858.277 123.027C858.342 121.524 858.776 120.358 859.613 119.53C860.451 118.669 861.558 118.268 862.964 118.329L862.999 118.267Z" fill="black"/>
<path d="M397.815 110.899L398.362 98.2707L402.326 98.4424L402.481 94.8618L398.517 94.6901L398.583 93.1555C398.626 92.1645 398.88 91.4708 399.347 91.0426C399.814 90.6144 400.527 90.4211 401.486 90.4626C401.71 90.4723 401.964 90.5154 402.251 90.5598C402.537 90.6042 402.854 90.682 403.234 90.7946L403.386 87.2779C403.006 87.1653 402.626 87.0848 402.211 87.0348C401.797 86.9848 401.383 86.9349 400.967 86.9169C398.953 86.8296 397.427 87.308 396.358 88.3187C395.29 89.3294 394.71 90.8738 394.62 92.9519L394.551 94.5504L391.929 94.4368L391.774 98.0175L394.396 98.131L393.849 110.759L397.815 110.899ZM413.038 98.7783C413.262 98.788 413.39 98.7935 413.612 98.8352L414.12 98.9533L414.285 95.1488C414.222 95.1141 414.094 95.1085 413.902 95.1002L413.423 95.0795C412.368 95.0338 411.428 95.2813 410.541 95.7874C409.687 96.2949 408.949 97.0637 408.361 98.0632L408.485 95.1859L404.681 95.0212L403.979 111.23L407.975 111.403L408.316 103.538C408.381 102.036 408.816 100.87 409.652 100.041C410.491 99.1804 411.597 98.7799 413.004 98.8409L413.038 98.7783ZM414.75 103.497C414.645 105.927 415.388 108.009 416.948 109.71C418.508 111.411 420.55 112.332 423.075 112.441C425.601 112.551 427.746 111.843 429.447 110.283C431.18 108.725 432.098 106.746 432.203 104.317C432.307 101.919 431.563 99.8689 429.971 98.1664C428.412 96.4653 426.336 95.5747 423.81 95.4653C421.285 95.3559 419.171 96.0971 417.47 97.657C415.769 99.2168 414.85 101.195 414.746 103.593L414.75 103.497ZM428.238 104.177C428.178 105.552 427.681 106.683 426.745 107.572C425.81 108.46 424.638 108.89 423.264 108.83C421.889 108.771 420.789 108.275 419.934 107.309C419.079 106.343 418.682 105.172 418.741 103.798C418.801 102.423 419.298 101.292 420.233 100.403C421.169 99.5148 422.307 99.1157 423.682 99.1752C425.057 99.2348 426.188 99.7322 427.075 100.699C427.962 101.667 428.36 102.837 428.3 104.212L428.238 104.177ZM438.7 112.67L439.101 103.43C439.148 102.343 439.506 101.462 440.176 100.786C440.846 100.111 441.692 99.7951 442.747 99.8408C443.802 99.8865 444.588 100.241 445.137 100.873C445.686 101.506 445.936 102.381 445.888 103.5L445.481 112.899L449.477 113.072L449.93 102.618C450.01 100.764 449.532 99.2378 448.493 98.0718C447.455 96.9058 446.041 96.268 444.219 96.1891C443.164 96.1434 442.227 96.327 441.344 96.7372C440.462 97.1474 439.699 97.755 439.089 98.5293L439.18 96.4193L435.376 96.2545L434.674 112.463L438.7 112.67ZM454.896 97.132L452.307 97.0198L452.152 100.6L454.741 100.713L454.424 108.034C454.341 109.952 454.726 111.41 455.58 112.408C456.433 113.406 457.755 113.943 459.546 114.021C460.153 114.047 460.699 114.007 461.217 113.901C461.734 113.795 462.252 113.658 462.741 113.455L462.894 109.938C462.5 110.145 462.11 110.288 461.754 110.369C461.366 110.448 460.98 110.496 460.596 110.479C459.797 110.444 459.23 110.228 458.895 109.829C458.561 109.398 458.397 108.75 458.434 107.887L458.737 100.886L462.734 101.059L462.889 97.4781L458.892 97.3051L459.14 91.5824L455.104 92.3365L454.896 97.132ZM464.985 103.591L464.829 107.203L472.629 107.541L472.786 103.928L464.985 103.591ZM483.539 111.697C482.292 111.643 481.253 111.214 480.423 110.409C479.593 109.604 479.125 108.591 478.987 107.336L492.159 107.906L492.214 106.628C492.318 104.23 491.605 102.213 490.106 100.579C488.607 98.9444 486.626 98.0898 484.165 97.9832C481.735 97.878 479.653 98.6206 477.918 100.211C476.184 101.801 475.265 103.78 475.163 106.145C475.056 108.607 475.768 110.656 477.328 112.357C478.888 114.058 480.898 114.978 483.36 115.084C485.374 115.172 487.122 114.735 488.604 113.806C490.086 112.877 491.136 111.546 491.756 109.811L487.856 109.642C487.407 110.391 486.806 110.942 486.118 111.296C485.398 111.649 484.559 111.805 483.6 111.764L483.539 111.697ZM484.082 101.375C485.201 101.423 486.147 101.753 486.92 102.395C487.693 103.037 488.201 103.891 488.443 104.959L479.395 104.567C479.793 103.527 480.404 102.721 481.23 102.148C482.055 101.575 483.027 101.329 484.146 101.378L484.082 101.375ZM498.74 115.27L499.141 106.031C499.188 104.944 499.546 104.062 500.216 103.387C500.886 102.711 501.732 102.396 502.787 102.441C503.842 102.487 504.628 102.841 505.177 103.474C505.726 104.106 505.976 104.982 505.928 106.101L505.521 115.5L509.517 115.673L509.97 105.219C510.05 103.364 509.572 101.838 508.533 100.672C507.495 99.5062 506.081 98.8684 504.259 98.7895C503.204 98.7438 502.267 98.9274 501.384 99.3376C500.502 99.7478 499.739 100.355 499.129 101.13L499.22 99.0197L495.416 98.8549L494.714 115.064L498.74 115.27ZM520.096 116.611C521.311 116.664 522.441 116.457 523.486 115.99C524.499 115.521 525.394 114.823 526.107 113.893L525.995 116.483L529.767 116.646L530.793 92.9562L526.797 92.7831L526.377 102.47C525.742 101.61 524.971 100.936 524 100.413C523.061 99.9241 522.015 99.6546 520.896 99.6062C518.594 99.5065 516.674 100.224 515.1 101.789C513.527 103.355 512.703 105.369 512.597 107.831C512.49 110.292 513.138 112.338 514.539 114.001C515.941 115.663 517.792 116.544 520.062 116.642L520.096 116.611ZM516.722 107.977C516.782 106.603 517.28 105.439 518.216 104.551C519.151 103.662 520.321 103.265 521.696 103.324C523.071 103.384 524.169 103.912 525.024 104.878C525.879 105.844 526.277 107.014 526.217 108.389C526.158 109.763 525.66 110.895 524.725 111.783C523.79 112.672 522.65 113.103 521.275 113.043C519.9 112.984 518.769 112.486 517.914 111.52C517.059 110.554 516.661 109.384 516.721 108.009L516.722 107.977Z" fill="#04090D"/>
<path d="M178.414 108.187L182.411 108.36L182.8 99.3764C183.434 100.269 184.205 100.943 185.145 101.432C186.085 101.921 187.098 102.189 188.217 102.238C190.551 102.339 192.504 101.622 194.077 100.057C195.65 98.4917 196.474 96.4774 196.581 94.0157C196.687 91.554 196.039 89.5081 194.638 87.8459C193.236 86.1837 191.385 85.3027 189.115 85.2044C187.932 85.1532 186.802 85.3605 185.757 85.8277C184.712 86.2949 183.817 86.9928 183.105 87.8909L183.214 85.3653L179.41 85.2005L178.414 108.187ZM192.391 93.8663C192.329 95.305 191.831 96.4365 190.896 97.3249C189.961 98.2132 188.789 98.6429 187.414 98.5834C186.04 98.5238 184.908 98.0264 184.053 97.0605C183.198 96.0946 182.8 94.9243 182.861 93.5176C182.921 92.1429 183.418 91.0114 184.354 90.123C185.289 89.2346 186.427 88.8355 187.802 88.8951C189.177 88.9546 190.275 89.4826 191.13 90.4485C191.985 91.4144 192.383 92.5847 192.323 93.9594L192.391 93.8663ZM209.894 86.5208L205.377 97.6317L201.805 86.1704L197.553 85.9863L203.166 102.821L200.586 109.147L204.614 109.322L214.05 86.7008L209.894 86.5208ZM217.274 86.8404L214.684 86.7283L214.529 90.3089L217.119 90.4211L216.802 97.7422C216.719 99.6604 217.104 101.118 217.958 102.116C218.811 103.114 220.133 103.652 221.924 103.729C222.531 103.756 223.077 103.715 223.594 103.61C224.111 103.504 224.63 103.366 225.119 103.163L225.271 99.6465C224.878 99.8536 224.487 99.9969 224.132 100.078C223.744 100.157 223.357 100.204 222.974 100.188C222.175 100.153 221.607 99.9362 221.272 99.5373C220.939 99.1065 220.775 98.4588 220.812 97.5956L221.115 90.5941L225.111 90.7672L225.267 87.1866L221.27 87.0135L221.518 81.2909L217.482 82.0449L217.274 86.8404ZM231.676 103.703L232.076 94.4641C232.123 93.3771 232.482 92.4958 233.151 91.8201C233.821 91.1445 234.668 90.8288 235.723 90.8745C236.778 90.9202 237.563 91.2745 238.112 91.9069C238.661 92.5392 238.913 93.3829 238.867 94.4379L238.455 103.965L242.451 104.138L242.904 93.6839C242.984 91.8296 242.506 90.3035 241.467 89.1374C240.429 87.9714 239.015 87.3336 237.193 87.2547C236.234 87.2132 235.33 87.3662 234.482 87.7139C233.634 88.0615 232.906 88.6065 232.331 89.3183L232.735 79.983L228.739 79.8099L227.713 103.5L231.676 103.703ZM245.504 96.1667C245.399 98.5964 246.142 100.678 247.701 102.38C249.261 104.081 251.303 105.002 253.829 105.111C256.355 105.221 258.499 104.513 260.2 102.953C261.933 101.394 262.852 99.4164 262.957 96.9867C263.061 94.5889 262.317 92.5388 260.725 90.8363C259.165 89.1352 257.09 88.2446 254.564 88.1352C252.039 88.0258 249.924 88.767 248.223 90.3269C246.522 91.8867 245.604 93.8648 245.5 96.2626L245.504 96.1667ZM258.991 96.8469C258.932 98.2216 258.434 99.3532 257.499 100.242C256.564 101.13 255.392 101.56 254.017 101.5C252.643 101.441 251.543 100.944 250.688 99.9786C249.833 99.0127 249.435 97.8424 249.495 96.4677C249.554 95.0929 250.052 93.9614 250.987 93.073C251.922 92.1847 253.061 91.7856 254.436 91.8451C255.81 91.9046 256.942 92.4021 257.829 93.3694C258.716 94.3366 259.113 95.507 259.054 96.8817L258.991 96.8469ZM269.454 105.34L269.854 96.1003C269.901 95.0133 270.26 94.132 270.93 93.4563C271.6 92.7807 272.446 92.465 273.501 92.5107C274.556 92.5564 275.341 92.9107 275.891 93.5431C276.44 94.1754 276.69 95.0511 276.642 96.17L276.235 105.569L280.231 105.742L280.684 95.2881C280.764 93.4338 280.286 91.9077 279.247 90.7417C278.208 89.5757 276.795 88.9379 274.972 88.859C273.917 88.8133 272.981 88.9969 272.098 89.4071C271.215 89.8173 270.452 90.4248 269.842 91.1992L269.934 89.0891L266.129 88.9244L265.427 105.133L269.454 105.34Z" fill="black"/>
<path d="M977.767 136.017L977.873 133.556C978.505 134.512 979.305 135.251 980.276 135.774C981.278 136.298 982.354 136.6 983.505 136.65C985.839 136.751 987.791 136.035 989.365 134.47C990.938 132.904 991.762 130.89 991.868 128.428C991.975 125.967 991.327 123.921 989.926 122.259C988.524 120.596 986.673 119.716 984.403 119.617C983.22 119.566 982.155 119.744 981.207 120.183C980.195 120.62 979.367 121.257 978.658 122.091L979.082 112.308L975.086 112.135L974.06 135.825L977.767 136.017ZM987.743 128.282C987.681 129.72 987.183 130.852 986.248 131.74C985.313 132.629 984.141 133.058 982.766 132.999C981.391 132.939 980.26 132.442 979.405 131.476C978.55 130.51 978.152 129.34 978.213 127.933C978.273 126.558 978.77 125.427 979.705 124.539C980.641 123.65 981.779 123.251 983.154 123.311C984.528 123.37 985.627 123.898 986.482 124.864C987.337 125.83 987.734 127 987.675 128.375L987.743 128.282ZM1003.8 137.145L1007.6 137.31L1008.05 126.983C1008.13 125.033 1007.59 123.472 1006.46 122.302C1005.32 121.132 1003.68 120.484 1001.54 120.392C999.593 120.307 997.971 120.781 996.613 121.812C995.255 122.842 994.492 124.186 994.326 125.812L998.162 125.979C998.322 125.249 998.698 124.689 999.26 124.296C999.821 123.904 1000.53 123.711 1001.37 123.747C1002.23 123.784 1002.92 124.039 1003.45 124.51C1003.97 124.981 1004.2 125.599 1004.17 126.335L1004.16 126.527L999.445 127.411C997.508 127.776 996.073 128.354 995.173 129.18C994.24 130.005 993.744 131.104 993.685 132.479C993.625 133.854 994.088 134.995 995.042 135.901C995.996 136.807 997.255 137.31 998.821 137.378C999.813 137.421 1000.75 137.237 1001.66 136.86C1002.54 136.482 1003.27 135.905 1003.85 135.129L1003.8 137.145ZM999.856 134.188C999.089 134.154 998.521 133.97 998.119 133.632C997.717 133.294 997.545 132.838 997.571 132.231C997.595 131.687 997.838 131.249 998.269 130.916C998.699 130.582 999.351 130.322 1000.29 130.138L1003.97 129.465L1003.93 130.296C1003.88 131.415 1003.46 132.326 1002.66 133.092C1001.86 133.858 1000.91 134.233 999.824 134.186L999.856 134.188ZM1019.73 121.179C1017.23 121.071 1015.12 121.812 1013.35 123.369C1011.62 124.928 1010.7 126.906 1010.6 129.304C1010.49 131.765 1011.23 133.816 1012.83 135.518C1014.45 137.222 1016.49 138.143 1018.99 138.251C1021.13 138.344 1023.01 137.785 1024.57 136.539C1026.19 135.296 1027.19 133.642 1027.63 131.579L1023.67 131.407C1023.34 132.386 1022.76 133.162 1021.94 133.735C1021.11 134.307 1020.17 134.587 1019.11 134.541C1017.74 134.482 1016.64 133.986 1015.79 133.02C1014.93 132.054 1014.53 130.883 1014.59 129.509C1014.65 128.134 1015.15 127.003 1016.08 126.114C1017.02 125.226 1018.16 124.827 1019.53 124.886C1020.59 124.932 1021.47 125.258 1022.21 125.867C1022.99 126.509 1023.46 127.299 1023.71 128.27L1027.71 128.443C1027.44 126.414 1026.56 124.71 1025.08 123.365C1023.6 122.019 1021.77 121.3 1019.63 121.207L1019.73 121.179ZM1034.14 138.459L1034.48 130.563L1040.31 138.726L1045.24 138.94L1038.56 129.682L1044.85 122.684L1040.22 122.483L1034.56 128.9L1035.17 114.769L1031.17 114.596L1030.15 138.286L1034.14 138.459ZM1045.52 128.734L1045.36 132.347L1053.16 132.685L1053.32 129.072L1045.52 128.734ZM1064.07 136.841C1062.82 136.787 1061.79 136.357 1060.96 135.553C1060.13 134.748 1059.66 133.735 1059.52 132.48L1072.69 133.05L1072.75 131.771C1072.85 129.374 1072.14 127.357 1070.64 125.722C1069.14 124.088 1067.16 123.234 1064.7 123.127C1062.27 123.022 1060.19 123.764 1058.45 125.355C1056.72 126.945 1055.8 128.923 1055.7 131.289C1055.59 133.751 1056.3 135.799 1057.86 137.501C1059.42 139.202 1061.43 140.121 1063.89 140.228C1065.91 140.315 1067.66 139.879 1069.14 138.95C1070.62 138.021 1071.67 136.689 1072.29 134.954L1068.39 134.786C1067.94 135.535 1067.34 136.085 1066.65 136.44C1065.93 136.793 1065.09 136.949 1064.13 136.907L1064.07 136.841ZM1064.61 126.518C1065.73 126.567 1066.68 126.896 1067.45 127.538C1068.23 128.18 1068.73 129.035 1068.98 130.103L1059.93 129.711C1060.33 128.671 1060.94 127.865 1061.76 127.292C1062.59 126.719 1063.56 126.473 1064.68 126.521L1064.61 126.518ZM1079.27 140.414L1079.67 131.174C1079.72 130.087 1080.08 129.206 1080.75 128.531C1081.42 127.855 1082.27 127.539 1083.32 127.585C1084.38 127.631 1085.16 127.985 1085.71 128.617C1086.26 129.25 1086.51 130.125 1086.46 131.244L1086.05 140.643L1090.05 140.816L1090.5 130.362C1090.58 128.508 1090.11 126.982 1089.07 125.816C1088.03 124.65 1086.61 124.012 1084.79 123.933C1083.74 123.887 1082.8 124.071 1081.92 124.481C1081.03 124.891 1080.27 125.499 1079.66 126.273L1079.75 124.163L1075.95 123.999L1075.25 140.207L1079.27 140.414ZM1100.63 141.755C1101.84 141.808 1102.97 141.6 1104.02 141.133C1105.03 140.665 1105.93 139.967 1106.64 139.037L1106.53 141.626L1110.3 141.79L1111.33 118.1L1107.33 117.927L1106.91 127.614C1106.28 126.753 1105.5 126.079 1104.53 125.557C1103.59 125.068 1102.55 124.798 1101.43 124.75C1099.13 124.65 1097.21 125.368 1095.63 126.933C1094.06 128.498 1093.24 130.513 1093.13 132.974C1093.02 135.436 1093.67 137.482 1095.07 139.144C1096.47 140.806 1098.33 141.687 1100.6 141.786L1100.63 141.755ZM1097.26 133.121C1097.31 131.746 1097.81 130.583 1098.75 129.694C1099.68 128.806 1100.85 128.408 1102.23 128.468C1103.6 128.527 1104.7 129.055 1105.56 130.021C1106.41 130.987 1106.81 132.158 1106.75 133.532C1106.69 134.907 1106.19 136.039 1105.26 136.927C1104.32 137.815 1103.18 138.246 1101.81 138.187C1100.43 138.127 1099.3 137.63 1098.45 136.664C1097.59 135.698 1097.19 134.528 1097.25 133.153L1097.26 133.121Z" fill="black"/>
<path d="M1223.07 125.47C1223.04 126.205 1223.23 126.822 1223.69 127.323C1224.15 127.823 1224.78 128.106 1225.52 128.138C1226.32 128.173 1226.93 127.975 1227.43 127.517C1227.93 127.058 1228.21 126.462 1228.25 125.726C1228.28 124.991 1228.05 124.372 1227.59 123.872C1227.13 123.372 1226.53 123.122 1225.73 123.087C1224.94 123.052 1224.32 123.25 1223.82 123.709C1223.32 124.167 1223.04 124.764 1223 125.499L1223.07 125.47ZM1226.69 146.831L1227.39 130.622L1223.4 130.449L1222.7 146.658L1226.69 146.831ZM1230.14 135.673C1230 138.966 1231 141.796 1233.14 144.131C1235.28 146.466 1238.04 147.707 1241.46 147.855C1244.88 148.003 1247.78 147.007 1250.15 144.868C1252.51 142.728 1253.75 139.995 1253.89 136.702C1254.04 133.409 1253.04 130.612 1250.86 128.275C1248.69 125.939 1245.89 124.697 1242.47 124.549C1239.05 124.401 1236.16 125.396 1233.82 127.537C1231.49 129.678 1230.25 132.411 1230.11 135.704L1230.14 135.673ZM1249.48 136.543C1249.39 138.749 1248.6 140.573 1247.13 141.983C1245.66 143.392 1243.84 144.05 1241.67 143.956C1239.49 143.862 1237.73 143.049 1236.39 141.517C1235.05 139.986 1234.42 138.133 1234.52 135.927C1234.61 133.753 1235.39 131.961 1236.86 130.552C1238.33 129.142 1240.16 128.484 1242.3 128.577C1244.44 128.67 1246.2 129.483 1247.57 131.016C1248.95 132.516 1249.58 134.369 1249.48 136.575L1249.48 136.543ZM1264.86 125.518C1262.59 125.42 1260.71 125.947 1259.15 127.065C1257.63 128.184 1256.83 129.719 1256.74 131.637C1256.68 133.203 1257.04 134.5 1257.86 135.529C1258.68 136.557 1260.08 137.419 1262.07 138.113L1265.26 139.212C1266.55 139.653 1267.43 140.107 1267.86 140.574C1268.28 141.041 1268.48 141.626 1268.45 142.298C1268.41 143.289 1268.03 144.041 1267.3 144.522C1266.58 145.003 1265.57 145.216 1264.26 145.159C1262.89 145.099 1261.82 144.701 1261.05 143.963C1260.28 143.225 1259.91 142.216 1259.93 140.903L1255.68 140.719C1255.64 143.184 1256.35 145.137 1257.86 146.547C1259.37 147.958 1261.48 148.722 1264.2 148.84C1266.73 148.949 1268.77 148.429 1270.26 147.244C1271.78 146.061 1272.59 144.367 1272.69 142.161C1272.75 140.658 1272.36 139.36 1271.51 138.33C1270.66 137.3 1269.19 136.436 1267.14 135.738L1263.7 134.564C1262.59 134.164 1261.84 133.747 1261.44 133.314C1261.05 132.88 1260.88 132.328 1260.91 131.625C1260.94 130.826 1261.29 130.2 1261.98 129.75C1262.68 129.299 1263.55 129.113 1264.6 129.159C1265.79 129.21 1266.73 129.571 1267.38 130.208C1268.02 130.844 1268.33 131.755 1268.35 132.94L1272.66 133.127C1272.64 130.82 1271.91 128.995 1270.53 127.654C1269.15 126.313 1267.22 125.589 1264.79 125.483L1264.86 125.518ZM1289.22 149.923C1290.43 149.976 1291.56 149.768 1292.61 149.301C1293.62 148.833 1294.51 148.135 1295.23 147.205L1295.11 149.794L1298.89 149.958L1299.91 126.268L1295.92 126.095L1295.5 135.782C1294.86 134.921 1294.09 134.247 1293.12 133.725C1292.18 133.236 1291.14 132.966 1290.02 132.918C1287.71 132.818 1285.79 133.536 1284.22 135.101C1282.65 136.666 1281.82 138.681 1281.72 141.142C1281.61 143.604 1282.26 145.65 1283.66 147.312C1285.06 148.974 1286.91 149.855 1289.18 149.954L1289.22 149.923ZM1285.84 141.289C1285.9 139.914 1286.4 138.751 1287.34 137.862C1288.27 136.974 1289.44 136.576 1290.82 136.636C1292.19 136.695 1293.29 137.223 1294.14 138.189C1295 139.155 1295.4 140.326 1295.34 141.7C1295.28 143.075 1294.78 144.206 1293.85 145.095C1292.91 145.983 1291.77 146.414 1290.4 146.355C1289.02 146.295 1287.89 145.798 1287.03 144.832C1286.18 143.866 1285.78 142.696 1285.84 141.321L1285.84 141.289ZM1310.47 147.512C1309.22 147.458 1308.18 147.029 1307.35 146.224C1306.52 145.42 1306.05 144.406 1305.91 143.151L1319.09 143.722L1319.14 142.443C1319.25 140.045 1318.53 138.028 1317.03 136.394C1315.53 134.76 1313.55 133.905 1311.09 133.799C1308.66 133.693 1306.58 134.436 1304.85 136.026C1303.11 137.617 1302.19 139.595 1302.09 141.961C1301.98 144.422 1302.7 146.471 1304.26 148.172C1305.82 149.873 1307.83 150.793 1310.29 150.9C1312.3 150.987 1314.05 150.55 1315.53 149.621C1317.01 148.693 1318.06 147.361 1318.68 145.626L1314.78 145.457C1314.33 146.206 1313.73 146.757 1313.05 147.112C1312.33 147.465 1311.49 147.621 1310.53 147.579L1310.47 147.512ZM1311.01 137.19C1312.13 137.239 1313.07 137.568 1313.85 138.21C1314.62 138.852 1315.13 139.707 1315.37 140.774L1306.32 140.382C1306.72 139.343 1307.33 138.536 1308.16 137.963C1308.98 137.391 1309.95 137.144 1311.07 137.193L1311.01 137.19ZM1329.87 151.267L1336.58 135.319L1332.46 135.14L1327.91 146.25L1324.33 134.789L1320.11 134.606L1325.39 151.073L1329.87 151.267ZM1345.15 149.015C1343.91 148.961 1342.87 148.531 1342.04 147.727C1341.21 146.922 1340.74 145.909 1340.6 144.654L1353.77 145.224L1353.83 143.945C1353.93 141.548 1353.22 139.531 1351.72 137.896C1350.22 136.262 1348.24 135.408 1345.78 135.301C1343.35 135.196 1341.27 135.938 1339.53 137.529C1337.8 139.119 1336.88 141.097 1336.78 143.463C1336.67 145.925 1337.38 147.973 1338.94 149.675C1340.5 151.376 1342.51 152.295 1344.97 152.402C1346.99 152.489 1348.74 152.053 1350.22 151.124C1351.7 150.195 1352.75 148.863 1353.37 147.128L1349.47 146.96C1349.02 147.709 1348.42 148.259 1347.73 148.614C1347.01 148.967 1346.17 149.123 1345.21 149.081L1345.15 149.015ZM1345.7 138.693C1346.82 138.741 1347.76 139.07 1348.54 139.712C1349.31 140.354 1349.82 141.209 1350.06 142.277L1341.01 141.885C1341.41 140.845 1342.02 140.039 1342.84 139.466C1343.67 138.893 1344.64 138.647 1345.76 138.695L1345.7 138.693ZM1357.42 128.726L1356.39 152.416L1360.39 152.589L1361.41 128.899L1357.42 128.726ZM1363.66 144.595C1363.56 147.025 1364.3 149.107 1365.86 150.808C1367.42 152.509 1369.46 153.431 1371.99 153.54C1374.51 153.649 1376.66 152.942 1378.36 151.382C1380.09 149.823 1381.01 147.845 1381.12 145.415C1381.22 143.018 1380.47 140.968 1378.88 139.265C1377.32 137.564 1375.25 136.673 1372.72 136.564C1370.2 136.455 1368.08 137.196 1366.38 138.756C1364.68 140.315 1363.76 142.294 1363.66 144.691L1363.66 144.595ZM1377.15 145.276C1377.09 146.65 1376.59 147.782 1375.66 148.67C1374.72 149.559 1373.55 149.988 1372.18 149.929C1370.8 149.869 1369.7 149.373 1368.85 148.407C1367.99 147.441 1367.59 146.271 1367.65 144.896C1367.71 143.522 1368.21 142.39 1369.15 141.502C1370.08 140.613 1371.22 140.214 1372.59 140.274C1373.97 140.333 1375.1 140.831 1375.99 141.798C1376.87 142.765 1377.27 143.936 1377.21 145.31L1377.15 145.276ZM1383.32 160.373L1387.32 160.546L1387.71 151.562C1388.34 152.455 1389.11 153.129 1390.05 153.618C1390.99 154.107 1392.01 154.375 1393.12 154.423C1395.46 154.525 1397.41 153.808 1398.98 152.243C1400.56 150.678 1401.38 148.663 1401.49 146.202C1401.6 143.74 1400.95 141.694 1399.55 140.032C1398.14 138.37 1396.29 137.489 1394.02 137.39C1392.84 137.339 1391.71 137.546 1390.66 138.014C1389.62 138.481 1388.72 139.179 1388.01 140.077L1388.12 137.551L1384.32 137.386L1383.32 160.373ZM1397.3 146.052C1397.24 147.491 1396.74 148.622 1395.8 149.511C1394.87 150.399 1393.7 150.829 1392.32 150.769C1390.95 150.71 1389.82 150.212 1388.96 149.246C1388.11 148.281 1387.71 147.11 1387.77 145.704C1387.83 144.329 1388.33 143.197 1389.26 142.309C1390.2 141.421 1391.34 141.022 1392.71 141.081C1394.08 141.141 1395.18 141.669 1396.04 142.634C1396.89 143.6 1397.29 144.771 1397.23 146.145L1397.3 146.052ZM1411.59 151.892C1410.35 151.838 1409.31 151.409 1408.48 150.604C1407.65 149.8 1407.18 148.786 1407.04 147.531L1420.21 148.102L1420.27 146.823C1420.37 144.425 1419.66 142.408 1418.16 140.774C1416.66 139.14 1414.68 138.285 1412.22 138.179C1409.79 138.073 1407.71 138.816 1405.97 140.406C1404.24 141.997 1403.32 143.975 1403.22 146.341C1403.11 148.802 1403.82 150.851 1405.38 152.552C1406.94 154.253 1408.95 155.173 1411.41 155.28C1413.43 155.367 1415.18 154.93 1416.66 154.001C1418.14 153.073 1419.19 151.741 1419.81 150.006L1415.91 149.837C1415.46 150.586 1414.86 151.137 1414.17 151.492C1413.45 151.845 1412.61 152.001 1411.65 151.959L1411.59 151.892ZM1412.14 141.57C1413.26 141.619 1414.2 141.948 1414.98 142.59C1415.75 143.232 1416.26 144.087 1416.5 145.154L1407.45 144.762C1407.85 143.723 1408.46 142.916 1409.28 142.343C1410.11 141.771 1411.08 141.524 1412.2 141.573L1412.14 141.57ZM1431.86 142.905C1432.08 142.914 1432.21 142.92 1432.43 142.962L1432.94 143.08L1433.1 139.275C1433.04 139.24 1432.91 139.235 1432.72 139.227L1432.24 139.206C1431.19 139.16 1430.25 139.408 1429.36 139.914C1428.5 140.421 1427.77 141.19 1427.18 142.19L1427.3 139.312L1423.5 139.147L1422.8 155.356L1426.79 155.529L1427.13 147.665C1427.2 146.162 1427.63 144.996 1428.47 144.167C1429.31 143.307 1430.41 142.906 1431.82 142.967L1431.86 142.905Z" fill="black"/>
<path d="M-194.534 85.2436L-190.73 85.4084L-190.282 75.0821C-190.198 73.1319 -190.739 71.571 -191.873 70.4009C-193.008 69.2307 -194.645 68.5832 -196.787 68.4904C-198.737 68.406 -200.36 68.8802 -201.717 69.9104C-203.075 70.9406 -203.838 72.2849 -204.005 73.9112L-200.168 74.0774C-200.009 73.3476 -199.632 72.7874 -199.07 72.3953C-198.509 72.0032 -197.796 71.8099 -196.965 71.8459C-196.101 71.8833 -195.408 72.1375 -194.884 72.6087C-194.36 73.0798 -194.13 73.6983 -194.162 74.4336L-194.17 74.6254L-198.885 75.5102C-200.823 75.8747 -202.257 76.4532 -203.158 77.279C-204.09 78.1034 -204.586 79.203 -204.646 80.5777C-204.705 81.9524 -204.242 83.0935 -203.288 83.9997C-202.335 84.9058 -201.075 85.4087 -199.509 85.4766C-198.518 85.5195 -197.581 85.3359 -196.668 84.959C-195.787 84.5808 -195.057 84.0038 -194.479 83.2281L-194.534 85.2436ZM-198.474 82.2864C-199.241 82.2531 -199.81 82.0684 -200.211 81.7307C-200.613 81.393 -200.786 80.9371 -200.759 80.3297C-200.736 79.7862 -200.493 79.3483 -200.062 79.0146C-199.631 78.6809 -198.979 78.4209 -198.042 78.2373L-194.362 77.5639L-194.398 78.3951C-194.446 79.5141 -194.87 80.4246 -195.672 81.1906C-196.474 81.9566 -197.419 82.3321 -198.506 82.285L-198.474 82.2864ZM-182.906 85.7473L-182.505 76.5079C-182.458 75.421 -182.1 74.5396 -181.43 73.864C-180.76 73.1883 -179.914 72.8727 -178.859 72.9184C-177.804 72.9641 -177.018 73.3184 -176.469 73.9507C-175.92 74.5831 -175.67 75.4587 -175.718 76.5777L-176.125 85.9769L-172.129 86.15L-171.676 75.6958C-171.596 73.8415 -172.074 72.3154 -173.113 71.1493C-174.151 69.9833 -175.565 69.3455 -177.387 69.2666C-178.442 69.2209 -179.379 69.4046 -180.262 69.8148C-181.144 70.2249 -181.907 70.8325 -182.517 71.6068L-182.426 69.4968L-186.23 69.332L-186.932 85.5408L-182.906 85.7473ZM-161.55 87.0886C-160.335 87.1412 -159.205 86.9339 -158.16 86.4667C-157.147 85.9981 -156.252 85.3002 -155.539 84.3701L-155.651 86.9597L-151.879 87.1231L-150.853 63.4333L-154.849 63.2602L-155.269 72.9472C-155.904 72.0869 -156.675 71.4128 -157.646 70.8904C-158.585 70.4012 -159.631 70.1318 -160.75 70.0833C-163.052 69.9836 -164.972 70.7012 -166.546 72.2665C-168.119 73.8319 -168.943 75.8462 -169.049 78.3079C-169.156 80.7696 -168.508 82.8155 -167.107 84.4777C-165.705 86.1399 -163.854 87.0209 -161.584 87.1192L-161.55 87.0886ZM-164.924 78.4545C-164.864 77.0798 -164.366 75.9163 -163.43 75.0279C-162.495 74.1396 -161.325 73.7418 -159.95 73.8014C-158.575 73.8609 -157.477 74.3889 -156.622 75.3548C-155.767 76.3207 -155.369 77.4911 -155.429 78.8658C-155.488 80.2405 -155.986 81.372 -156.921 82.2604C-157.856 83.1487 -158.996 83.5798 -160.371 83.5203C-161.746 83.4607 -162.877 82.9633 -163.732 81.9974C-164.587 81.0315 -164.985 79.8612 -164.925 78.4865L-164.924 78.4545ZM-138.787 74.8781C-138.563 74.8878 -138.435 74.8934 -138.213 74.935L-137.705 75.0531L-137.541 71.2487C-137.603 71.2139 -137.731 71.2084 -137.923 71.2001L-138.402 71.1793C-139.457 71.1336 -140.397 71.3812 -141.284 71.8873C-142.139 72.3948 -142.877 73.1636 -143.464 74.1631L-143.34 71.2858L-147.144 71.121L-147.846 87.3298L-143.85 87.5029L-143.509 79.6383C-143.444 78.1357 -143.009 76.9694 -142.173 76.1408C-141.335 75.2803 -140.228 74.8798 -138.822 74.9407L-138.787 74.8781ZM-137.075 79.5966C-137.18 82.0264 -136.437 84.1084 -134.877 85.8095C-133.318 87.5106 -131.276 88.4318 -128.75 88.5412C-126.224 88.6506 -124.08 87.9428 -122.379 86.3829C-120.646 84.8244 -119.727 82.8463 -119.622 80.4166C-119.518 78.0189 -120.262 75.9687 -121.854 74.2663C-123.414 72.5652 -125.489 71.6745 -128.015 71.5652C-130.54 71.4558 -132.654 72.197 -134.355 73.7568C-136.057 75.3167 -136.975 77.2948 -137.079 79.6926L-137.075 79.5966ZM-123.588 80.2769C-123.647 81.6516 -124.144 82.7831 -125.08 83.6715C-126.015 84.5598 -127.187 84.9895 -128.562 84.93C-129.936 84.8705 -131.036 84.3744 -131.891 83.4085C-132.746 82.4426 -133.144 81.2723 -133.084 79.8976C-133.024 78.5229 -132.527 77.3914 -131.592 76.503C-130.656 75.6146 -129.518 75.2155 -128.143 75.2751C-126.769 75.3346 -125.637 75.832 -124.75 76.7993C-123.863 77.7666 -123.465 78.9369 -123.525 80.3116L-123.588 80.2769ZM-116.781 67.4394C-116.813 68.1747 -116.616 68.7918 -116.157 69.2921C-115.698 69.7924 -115.07 70.0759 -114.334 70.1077C-113.535 70.1424 -112.918 69.9449 -112.418 69.4861C-111.917 69.0273 -111.635 68.431 -111.603 67.6957C-111.572 66.9603 -111.801 66.3418 -112.26 65.8415C-112.719 65.3412 -113.316 65.0911 -114.116 65.0565C-114.915 65.0219 -115.532 65.2193 -116.032 65.6781C-116.533 66.1369 -116.815 66.7333 -116.846 67.4686L-116.781 67.4394ZM-113.158 88.8002L-112.456 72.5913L-116.452 72.4183L-117.154 88.6271L-113.158 88.8002ZM-102.291 89.6552C-101.076 89.7078 -99.946 89.5005 -98.9008 89.0333C-97.8876 88.5647 -96.9925 87.8668 -96.2796 86.9367L-96.3918 89.5263L-92.6193 89.6897L-91.5933 65.9999L-95.5895 65.8268L-96.0091 75.5138C-96.6444 74.6535 -97.416 73.9794 -98.3863 73.457C-99.326 72.9678 -100.371 72.6984 -101.49 72.6499C-103.792 72.5502 -105.713 73.2678 -107.286 74.8331C-108.859 76.3985 -109.683 78.4128 -109.79 80.8745C-109.897 83.3362 -109.248 85.3821 -107.847 87.0443C-106.446 88.7065 -104.594 89.5875 -102.324 89.6858L-102.291 89.6552ZM-105.664 81.0211C-105.605 79.6464 -105.106 78.4829 -104.171 77.5945C-103.235 76.7062 -102.065 76.3084 -100.69 76.368C-99.3157 76.4275 -98.2175 76.9555 -97.3625 77.9214C-96.5075 78.8873 -96.1098 80.0577 -96.1693 81.4324C-96.2289 82.8071 -96.7263 83.9386 -97.6616 84.827C-98.5969 85.7153 -99.7366 86.1464 -101.111 86.0869C-102.486 86.0273 -103.618 85.5299 -104.473 84.564C-105.328 83.5981 -105.725 82.4278 -105.666 81.0531L-105.664 81.0211ZM-74.9403 90.8398C-73.7254 90.8924 -72.5954 90.6851 -71.5502 90.2179C-70.537 89.7493 -69.6419 89.0514 -68.929 88.1213L-69.0412 90.7109L-65.2687 90.8743L-64.2427 67.1845L-68.2389 67.0114L-68.6585 76.6983C-69.2938 75.838 -70.0654 75.164 -71.0357 74.6416C-71.9754 74.1524 -73.0207 73.8829 -74.1397 73.8345C-76.4415 73.7348 -78.3624 74.4523 -79.9356 76.0177C-81.5088 77.5831 -82.3327 79.5974 -82.4393 82.0591C-82.546 84.5207 -81.8979 86.5667 -80.4965 88.2289C-79.0951 89.8911 -77.2435 90.772 -74.9736 90.8704L-74.9403 90.8398ZM-78.3138 82.2057C-78.2543 80.831 -77.7555 79.6675 -76.8202 78.7791C-75.8848 77.8908 -74.7145 77.493 -73.3398 77.5526C-71.9651 77.6121 -70.8669 78.1401 -70.0119 79.106C-69.1569 80.0719 -68.7592 81.2422 -68.8187 82.617C-68.8783 83.9917 -69.3757 85.1232 -70.311 86.0116C-71.2463 86.8999 -72.386 87.331 -73.7608 87.2715C-75.1355 87.2119 -76.267 86.7145 -77.122 85.7486C-77.977 84.7827 -78.3747 83.6124 -78.3152 82.2377L-78.3138 82.2057ZM-53.6903 88.429C-54.9371 88.375 -55.9755 87.9457 -56.8055 87.141C-57.6354 86.3363 -58.104 85.3231 -58.2418 84.068L-45.0702 84.6385L-45.0148 83.3597C-44.911 80.9619 -45.6244 78.9451 -47.123 77.3108C-48.6217 75.6764 -50.6026 74.8219 -53.0643 74.7153C-55.494 74.61 -57.5761 75.3526 -59.3105 76.9431C-61.045 78.5335 -61.9634 80.5116 -62.0659 82.8774C-62.1725 85.3391 -61.4605 87.3878 -59.9007 89.0889C-58.3408 90.79 -56.3307 91.7098 -53.869 91.8165C-51.8549 91.9037 -50.1064 91.4669 -48.6248 90.5382C-47.1432 89.6094 -46.0926 88.2776 -45.473 86.5428L-49.3733 86.3739C-49.8222 87.1232 -50.4225 87.6737 -51.1105 88.0283C-51.8305 88.3814 -52.67 88.5373 -53.6291 88.4957L-53.6903 88.429ZM-53.1471 78.1068C-52.0282 78.1553 -51.0815 78.4846 -50.3086 79.1266C-49.5357 79.7687 -49.0282 80.6234 -48.7861 81.6909L-57.8336 81.299C-57.4363 80.2593 -56.8248 79.453 -55.9993 78.8802C-55.1737 78.3073 -54.2021 78.0612 -53.0832 78.1096L-53.1471 78.1068ZM-34.2891 92.184L-27.5767 76.2355L-31.7008 76.0569L-36.2498 87.1665L-39.8212 75.7052L-44.0413 75.5224L-38.7649 91.9902L-34.2891 92.184ZM-19.0028 89.9314C-20.2496 89.8774 -21.288 89.448 -22.118 88.6434C-22.9479 87.8387 -23.4165 86.8255 -23.5544 85.5703L-10.3827 86.1408L-10.3273 84.862C-10.2235 82.4643 -10.9369 80.4475 -12.4356 78.8131C-13.9342 77.1787 -15.9151 76.3242 -18.3768 76.2176C-20.8065 76.1124 -22.8886 76.855 -24.6231 78.4454C-26.3575 80.0359 -27.276 82.014 -27.3784 84.3797C-27.485 86.8414 -26.773 88.8902 -25.2132 90.5913C-23.6533 92.2923 -21.6432 93.2122 -19.1815 93.3188C-17.1674 93.406 -15.4189 92.9693 -13.9373 92.0405C-12.4557 91.1118 -11.4051 89.78 -10.7855 88.0452L-14.6858 87.8762C-15.1347 88.6255 -15.7351 89.1761 -16.423 89.5306C-17.143 89.8838 -17.9825 90.0396 -18.9416 89.9981L-19.0028 89.9314ZM-18.4596 79.6092C-17.3407 79.6577 -16.3941 79.9869 -15.6211 80.629C-14.8482 81.271 -14.3407 82.1258 -14.0986 83.1933L-23.1462 82.8014C-22.7488 81.7616 -22.1373 80.9553 -21.3118 80.3825C-20.4862 79.8097 -19.5147 79.5635 -18.3957 79.612L-18.4596 79.6092ZM-6.73918 69.643L-7.76521 93.3328L-3.76896 93.5059L-2.74293 69.8161L-6.73918 69.643ZM-0.494011 85.5121C-0.599245 87.9418 0.143358 90.0239 1.70321 91.725C3.26307 93.4261 5.30512 94.3473 7.83075 94.4567C10.3564 94.5661 12.501 93.8582 14.2021 92.2984C15.9352 90.7399 16.8536 88.7618 16.9589 86.3321C17.0627 83.9343 16.3187 81.8842 14.7269 80.1817C13.167 78.4807 11.0916 77.59 8.566 77.4806C6.04037 77.3712 3.92632 78.1125 2.22523 79.6723C0.524139 81.2322 -0.394315 83.2103 -0.498165 85.608L-0.494011 85.5121ZM12.9932 86.1924C12.9336 87.5671 12.4362 88.6986 11.5009 89.587C10.5656 90.4753 9.3939 90.905 8.01918 90.8455C6.64447 90.7859 5.54491 90.2899 4.6899 89.324C3.8349 88.3581 3.43716 87.1878 3.4967 85.8131C3.55624 84.4384 4.05367 83.3068 4.98899 82.4185C5.9243 81.5301 7.06264 81.131 8.43735 81.1905C9.81206 81.2501 10.9436 81.7475 11.8306 82.7148C12.7176 83.6821 13.1153 84.8524 13.0557 86.2271L12.9932 86.1924ZM19.1662 101.29L23.1625 101.463L23.5515 92.4791C24.1855 93.3714 24.9571 94.0454 25.8968 94.5345C26.8365 95.0236 27.8499 95.2917 28.9688 95.3402C31.3026 95.4413 33.2554 94.7251 34.8287 93.1597C36.4019 91.5943 37.2258 89.5801 37.3324 87.1184C37.439 84.6567 36.791 82.6107 35.3896 80.9485C33.9882 79.2864 32.1366 78.4054 29.8667 78.3071C28.6838 78.2559 27.5538 78.4632 26.5086 78.9304C25.4634 79.3976 24.5683 80.0955 23.8568 80.9936L23.9662 78.4679L20.1618 78.3032L19.1662 101.29ZM33.143 86.969C33.0806 88.4076 32.5832 89.5392 31.6479 90.4275C30.7126 91.3159 29.5409 91.7456 28.1662 91.686C26.7915 91.6265 25.6599 91.1291 24.8049 90.1632C23.9499 89.1973 23.5522 88.027 23.6131 86.6203C23.6727 85.2456 24.1701 84.114 25.1054 83.2257C26.0407 82.3373 27.1791 81.9382 28.5538 81.9977C29.9285 82.0573 31.0267 82.5853 31.8817 83.5512C32.7367 84.5171 33.1344 85.6874 33.0749 87.0621L33.143 86.969ZM47.4374 92.809C46.1906 92.755 45.1522 92.3256 44.3222 91.521C43.4922 90.7163 43.0237 89.7031 42.8858 88.4479L56.0575 89.0184L56.1129 87.7396C56.2167 85.3419 55.5033 83.3251 54.0046 81.6907C52.506 80.0564 50.5251 79.2018 48.0634 79.0952C45.6337 78.99 43.5516 79.7326 41.8171 81.323C40.0827 82.9135 39.1642 84.8916 39.0618 87.2574C38.9552 89.719 39.6672 91.7678 41.227 93.4689C42.7869 95.17 44.797 96.0898 47.2586 96.1964C49.2728 96.2836 51.0213 95.8469 52.5029 94.9181C53.9844 93.9894 55.0351 92.6576 55.6547 90.9228L51.7544 90.7538C51.3055 91.5031 50.7051 92.0537 50.0172 92.4082C49.2972 92.7614 48.4577 92.9172 47.4986 92.8757L47.4374 92.809ZM47.9805 82.4868C49.0995 82.5353 50.0461 82.8645 50.8191 83.5066C51.592 84.1486 52.0995 85.0034 52.3415 86.0709L43.294 85.679C43.6914 84.6392 44.3029 83.8329 45.1284 83.2601C45.954 82.6873 46.9255 82.4411 48.0445 82.4896L47.9805 82.4868ZM67.6995 83.8213C67.9233 83.831 68.0512 83.8365 68.2736 83.8782L68.781 83.9963L68.9458 80.1918C68.8832 80.1571 68.7553 80.1516 68.5635 80.1433L68.084 80.1225C67.0289 80.0768 66.0893 80.3244 65.2026 80.8305C64.3479 81.338 63.6099 82.1067 63.0221 83.1062L63.1467 80.2289L59.3423 80.0642L58.6403 96.273L62.6365 96.4461L62.9771 88.5814C63.0422 87.0788 63.4771 85.9126 64.3137 85.084C65.1518 84.2234 66.2581 83.8229 67.6648 83.8839L67.6995 83.8213Z" fill="black"/>
</svg>
